<?xml version="1.0" encoding="UTF-8" standalone="no"?>
<!-- Created with Inkscape (http://www.inkscape.org/) -->

<svg
   xmlns:dc="http://purl.org/dc/elements/1.1/"
   xmlns:cc="http://creativecommons.org/ns#"
   xmlns:rdf="http://www.w3.org/1999/02/22-rdf-syntax-ns#"
   xmlns:svg="http://www.w3.org/2000/svg"
   xmlns="http://www.w3.org/2000/svg"
   xmlns:sodipodi="http://sodipodi.sourceforge.net/DTD/sodipodi-0.dtd"
   xmlns:inkscape="http://www.inkscape.org/namespaces/inkscape"
   width="197.46288"
   height="36.20047"
   viewBox="0 0 52.245387 9.5780408"
   version="1.1"
   id="svg2821"
   inkscape:version="0.92.0 r15299"
   sodipodi:docname="imagination tehnology.svg">
  <defs
     id="defs2815">
    <style
       id="style2823">.cls-1{fill:#712886;}</style>
  </defs>
  <sodipodi:namedview
     id="base"
     pagecolor="#ffffff"
     bordercolor="#666666"
     borderopacity="1.0"
     inkscape:pageopacity="0.0"
     inkscape:pageshadow="2"
     inkscape:zoom="4.565748"
     inkscape:cx="98.231446"
     inkscape:cy="17.600179"
     inkscape:document-units="mm"
     inkscape:current-layer="layer1"
     showgrid="false"
     fit-margin-top="0"
     fit-margin-left="0"
     fit-margin-right="0"
     fit-margin-bottom="0"
     units="px"
     inkscape:window-width="1280"
     inkscape:window-height="744"
     inkscape:window-x="-4"
     inkscape:window-y="-4"
     inkscape:window-maximized="1" />
  <metadata
     id="metadata2818">
    <rdf:RDF>
      <cc:Work
         rdf:about="">
        <dc:format>image/svg+xml</dc:format>
        <dc:type
           rdf:resource="http://purl.org/dc/dcmitype/StillImage" />
        <dc:title></dc:title>
      </cc:Work>
    </rdf:RDF>
  </metadata>
  <g
     inkscape:label="Layer 1"
     inkscape:groupmode="layer"
     id="layer1"
     transform="translate(10.871356,-336.67986)">
    <g
       id="g2915"
       transform="translate(0.13228986,-0.13229194)">
      <path
         style="fill:#712886;stroke-width:0.26458332"
         inkscape:connector-curvature="0"
         class="cls-1"
         d="m -3.6183623,338.85687 a 3.9952083,3.9952083 0 0 1 0.2883959,0.87312 h 4.6566666 v 5.00856 h -5.0085625 v -4.29418 a 3.5665833,3.5665833 0 0 0 -0.4206875,-1.5875 v 0 a 3.5930416,3.5930416 0 1 0 -0.8837083,4.44764 v -1.29646 a 2.7172708,2.7172708 0 1 1 0.4339167,-1.48695 v 5.08 h 6.7495207 v -6.74423 z"
         id="path2829" />
      <polygon
         transform="matrix(0.26458333,0,0,0.26458333,-10.867946,336.95187)"
         style="fill:#712886"
         class="cls-1"
         points="59.74,10.55 56.3,13.98 56.3,29.37 59.74,29.37 "
         id="polygon2832" />
      <path
         style="fill:#712886;stroke-width:0.26458332"
         inkscape:connector-curvature="0"
         class="cls-1"
         d="m 9.5843459,340.8677 a 1.3784791,1.3784791 0 0 0 -1.2065,0.58473 1.254125,1.254125 0 0 0 -1.0795,-0.58473 c -0.6482291,0 -0.9022291,0.32279 -0.9736666,0.4445 h -0.013229 v -0.3175 H 5.4806585 v 3.73592 h 0.8942916 v -1.85209 c 0,-0.39952 0,-1.18004 0.714375,-1.18004 0.5529792,0 0.7487708,0.46038 0.7487708,0.97102 v 2.06111 h 0.8969375 v -1.85209 a 1.6721666,1.6721666 0 0 1 0.1375833,-0.83079 0.72231249,0.72231249 0 0 1 0.619125,-0.34925 c 0.7064373,0 0.7064373,0.75406 0.7064373,0.97102 v 2.06111 h 0.896938 v -2.18017 a 1.8203333,1.8203333 0 0 0 -0.283104,-1.09802 1.4472708,1.4472708 0 0 0 -1.2276671,-0.57679"
         id="path2834" />
      <path
         style="fill:#712886;stroke-width:0.26458332"
         inkscape:connector-curvature="0"
         class="cls-1"
         d="m 13.476367,344.0427 a 1.1165417,1.1165417 0 0 1 -1.108604,-1.12448 c 0,0 0,-0.0185 0,-0.0291 a 1.1350625,1.1350625 0 0 1 1.074208,-1.19327 h 0.0344 a 1.095375,1.095375 0 0 1 1.095375,1.09537 q 0,0.0291 0,0.0609 a 1.1033125,1.1033125 0 0 1 -1.013354,1.18797 h -0.08202 m 1.116541,-2.56381 v 0 a 1.5875,1.5875 0 0 0 -1.254125,-0.61119 1.8917708,1.8917708 0 0 0 -1.86002,1.9103 q 0,0.0317 0,0.0661 c 0,1.24354 0.854604,2.01084 1.820333,2.01084 a 1.8520833,1.8520833 0 0 0 1.304396,-0.58473 v 0.46037 h 0.822854 v -3.73327 h -0.820208 z"
         id="path2836" />
      <path
         style="fill:#712886;stroke-width:0.26458332"
         inkscape:connector-curvature="0"
         class="cls-1"
         d="m 17.834054,344.0427 a 1.143,1.143 0 0 1 -1.116542,-1.16681 c 0,0 0,-0.0212 0,-0.0318 a 1.11125,1.11125 0 0 1 1.076855,-1.14565 h 0.01587 a 1.1403542,1.1403542 0 0 1 1.095375,1.13771 1.1244792,1.1244792 0 0 1 -1.037167,1.20385 h -0.0344 m 1.100667,-2.58762 h -0.01323 a 1.3387916,1.3387916 0 0 0 -1.190625,-0.58473 1.9420416,1.9420416 0 0 0 -1.905,1.96056 1.9817291,1.9817291 0 0 0 1.912937,2.02671 1.4102291,1.4102291 0 0 0 1.235604,-0.61383 l 0.01323,0.0159 a 1.1721042,1.1721042 0 0 1 -2.071687,0.75936 h -1.021292 a 1.9658541,1.9658541 0 0 0 1.878542,1.24089 c 0.706437,0 2.042583,-0.41275 2.042583,-2.20927 v -3.05329 h -0.870479 z"
         id="path2838" />
      <path
         style="fill:#712886;stroke-width:0.26458332"
         inkscape:connector-curvature="0"
         class="cls-1"
         d="m 23.652242,340.8677 a 1.4075833,1.4075833 0 0 0 -1.023938,0.44979 v -0.32808 h -0.828146 v 3.73856 h 0.896938 v -1.78064 a 1.7541875,1.7541875 0 0 1 0.161396,-0.93398 0.76729166,0.76729166 0 0 1 0.613833,-0.33073 c 0.754062,0 0.754062,0.889 0.754062,1.20121 v 1.85208 h 0.891646 v -2.02936 c 0,-0.28839 0,-0.91545 -0.343958,-1.32291 a 1.5213541,1.5213541 0 0 0 -1.124479,-0.52917"
         id="path2840" />
      <path
         style="fill:#712886;stroke-width:0.26458332"
         inkscape:connector-curvature="0"
         class="cls-1"
         d="m 27.525742,344.02683 a 1.1165417,1.1165417 0 0 1 -1.108605,-1.12448 c 0,0 0,-0.0185 0,-0.0291 a 1.1377083,1.1377083 0 0 1 1.082146,-1.19327 h 0.0291 a 1.0927292,1.0927292 0 0 1 1.092729,1.09538 q 0,0.037 0,0.0767 a 1.1006667,1.1006667 0 0 1 -1.021291,1.17475 h -0.07144 m 1.116542,-2.5744 H 28.6317 a 1.5875,1.5875 0 0 0 -1.23825,-0.59267 1.8917708,1.8917708 0 0 0 -1.875896,1.91559 q 0,0.0344 0,0.0688 c 0,1.24354 0.854604,2.01083 1.820333,2.01083 a 1.8520833,1.8520833 0 0 0 1.307042,-0.58473 v 0.46302 h 0.822854 v -3.74385 h -0.822854 z"
         id="path2842" />
      <polygon
         transform="matrix(0.26458333,0,0,0.26458333,-10.867946,336.95187)"
         style="fill:#712886"
         class="cls-1"
         points="159.2,29.39 159.2,18.27 161.25,18.27 161.25,15.26 159.2,15.26 159.2,10.55 155.81,10.55 155.81,15.26 154.16,15.26 154.16,18.27 155.81,18.27 155.81,29.39 "
         id="polygon2844" />
      <path
         style="fill:#712886;stroke-width:0.26458332"
         inkscape:connector-curvature="0"
         class="cls-1"
         d="m 35.452658,344.02683 a 1.1191875,1.1191875 0 0 1 -1.098021,-1.14036 c 0,0 0,-0.0159 0,-0.0238 a 1.095375,1.095375 0 1 1 2.185459,0 1.1191875,1.1191875 0 0 1 -1.0795,1.15887 v 0 m 0,-3.175 a 1.9936354,1.9936354 0 1 0 0,3.98727 1.9499791,1.9499791 0 0 0 1.981729,-1.91822 q 0,-0.0423 0,-0.082 a 1.9764375,1.9764375 0 0 0 -1.981729,-1.96585"
         id="path2846" />
      <path
         style="fill:#712886;stroke-width:0.26458332"
         inkscape:connector-curvature="0"
         class="cls-1"
         d="m 39.643658,340.8677 a 1.3996458,1.3996458 0 0 0 -1.023937,0.44979 v -0.32808 h -0.830792 v 3.73856 h 0.896937 v -1.78064 a 1.7541875,1.7541875 0 0 1 0.161396,-0.93398 0.76993749,0.76993749 0 0 1 0.613834,-0.33073 c 0.754062,0 0.754062,0.889 0.754062,1.20121 v 1.85208 h 0.894292 v -2.02936 c 0,-0.28839 0,-0.91545 -0.343959,-1.32291 a 1.5187083,1.5187083 0 0 0 -1.124479,-0.52917"
         id="path2848" />
      <rect
         style="fill:#712886;stroke-width:0.26458332"
         class="cls-1"
         x="20.350241"
         y="340.98941"
         width="0.90222919"
         height="3.7412083"
         id="rect2850" />
      <rect
         style="fill:#712886;stroke-width:0.26458332"
         class="cls-1"
         x="32.192989"
         y="340.98941"
         width="0.90222919"
         height="3.7412083"
         id="rect2852" />
    </g>
  </g>
</svg>
